<?xml version="1.0" standalone="no"?>
<!DOCTYPE svg PUBLIC "-//W3C//DTD SVG 20010904//EN"
 "http://www.w3.org/TR/2001/REC-SVG-20010904/DTD/svg10.dtd">
<svg version="1.0" xmlns="http://www.w3.org/2000/svg"
 width="500.000000pt" height="500.000000pt" viewBox="0 0 500.000000 500.000000"
 preserveAspectRatio="xMidYMid meet">
<metadata>
Created by potrace 1.14, written by Peter Selinger 2001-2017
</metadata>
<g transform="translate(0.000000,500.000000) scale(0.100000,-0.100000)"
fill="#000000" stroke="none">
<path d="M2567 4673 c-3 -10 -44 -130 -92 -268 -48 -137 -94 -270 -102 -295
-8 -25 -18 -54 -23 -65 -10 -23 -151 -435 -155 -450 -1 -5 -5 -19 -9 -30 -4
-11 -18 -49 -31 -85 -13 -36 -37 -105 -54 -155 -17 -49 -60 -175 -96 -280 -36
-104 -86 -251 -111 -325 -25 -74 -49 -138 -53 -142 -3 -3 -24 -8 -46 -12 -84
-11 -124 -18 -260 -47 -77 -17 -149 -32 -160 -34 -11 -3 -31 -9 -45 -14 -22
-9 -157 -50 -185 -57 -44 -11 -222 -92 -305 -138 -119 -68 -231 -171 -267
-246 -55 -115 -28 -233 80 -344 128 -131 330 -231 685 -336 59 -18 73 -26 69
-39 -3 -9 -30 -86 -59 -171 l-54 -155 -50 4 c-27 2 -58 5 -69 7 -11 2 -40 6
-65 9 -82 10 -146 21 -190 31 -14 3 -34 8 -45 10 -153 30 -335 76 -388 99 -9
4 -17 3 -17 -1 0 -14 158 -85 280 -127 90 -31 235 -75 270 -81 14 -3 34 -7 45
-11 11 -3 57 -13 103 -23 80 -16 83 -18 79 -42 -8 -42 -16 -70 -21 -79 -8 -13
-157 -441 -163 -468 -3 -14 -1 -23 7 -23 14 0 40 25 40 38 0 5 12 36 27 68 15
33 27 61 28 64 1 3 8 21 17 40 8 19 41 96 73 170 32 74 71 163 86 198 16 34
29 65 29 67 0 2 14 34 30 70 17 36 30 67 30 70 0 3 34 81 70 160 5 11 14 33
20 48 5 16 14 26 20 22 12 -8 41 61 33 81 -3 8 2 29 10 47 24 47 76 165 97
218 10 26 28 66 39 90 11 24 49 114 86 199 37 85 81 187 97 225 17 39 36 84
44 100 35 83 118 275 134 310 10 23 39 90 65 150 26 61 55 128 65 150 50 110
170 395 170 404 0 6 5 11 10 11 6 0 10 7 10 16 0 8 11 39 24 67 14 29 30 67
38 85 7 17 16 32 20 32 3 0 9 -24 13 -52 4 -29 15 -97 26 -151 21 -107 24
-127 44 -249 3 -18 15 -82 26 -143 12 -60 23 -123 25 -140 2 -16 6 -41 9 -55
3 -14 8 -43 10 -64 3 -22 10 -60 16 -85 6 -25 13 -59 15 -76 8 -52 11 -69 18
-105 9 -49 15 -89 22 -130 11 -71 13 -80 17 -87 3 -5 8 -35 12 -68 3 -32 8
-62 10 -65 2 -3 6 -24 9 -46 3 -21 8 -52 12 -69 4 -16 7 -45 8 -62 0 -18 3
-33 7 -33 3 0 6 -6 6 -12 0 -7 3 -26 6 -43 4 -16 8 -43 11 -60 3 -16 10 -59
16 -95 6 -36 12 -74 14 -85 2 -11 7 -36 10 -55 13 -63 14 -75 15 -98 1 -13 5
-21 9 -18 4 2 2 61 -4 129 -7 68 -15 157 -18 198 -3 41 -8 92 -11 114 -5 45
-12 126 -20 235 -5 73 -10 127 -21 240 -11 115 -13 137 -18 200 -4 36 -9 92
-12 125 -5 60 -8 87 -19 225 -3 41 -7 95 -10 120 -2 25 -7 77 -10 115 -4 39
-8 88 -11 110 -2 22 -6 67 -9 100 -2 33 -7 80 -9 105 -3 25 -8 77 -10 115 -13
173 -16 213 -21 260 -11 96 -16 150 -20 200 -2 28 -6 78 -10 113 -3 34 -7 90
-10 125 -3 34 -7 82 -10 107 -2 25 -7 79 -10 120 -4 41 -8 89 -10 105 -2 17
-7 64 -10 105 -6 80 -9 91 -18 63z m-835 -2399 c5 -4 -74 -248 -99 -304 -3 -8
-7 -19 -8 -25 -4 -14 -103 -301 -123 -355 -9 -25 -17 -47 -18 -50 -4 -30 -30
-90 -38 -90 -14 0 -114 60 -152 91 -147 122 -192 247 -131 369 15 30 44 74 65
96 46 52 178 142 269 184 92 44 193 81 193 73 0 -4 5 -2 12 5 13 13 22 15 30
6z"/>
<path d="M2336 2623 c-2 -2 -26 -4 -54 -4 -64 -2 -76 -11 -101 -74 -10 -27
-31 -75 -45 -107 l-25 -56 22 3 c12 1 60 9 107 18 47 9 130 21 185 27 55 6
111 13 125 15 14 2 36 4 49 4 21 1 23 4 17 34 -3 17 -8 50 -12 72 -3 22 -7 47
-9 55 -2 12 -24 15 -129 15 -70 0 -129 -1 -130 -2z"/>
<path d="M2816 2599 c5 -34 11 -89 13 -121 1 -12 8 -16 24 -12 29 5 489 5 547
-1 25 -3 79 -7 120 -10 131 -8 205 -15 310 -30 19 -2 55 -7 80 -10 25 -4 63
-10 85 -15 22 -5 56 -11 75 -15 36 -5 65 -11 110 -21 14 -3 36 -7 49 -10 14
-3 58 -14 100 -26 41 -11 80 -21 86 -23 17 -3 49 -16 68 -26 9 -5 17 -6 17 -2
0 5 -21 19 -47 32 -27 13 -59 29 -73 36 -105 55 -463 163 -592 180 -15 2 -31
6 -35 8 -8 5 -59 14 -118 22 -16 3 -47 7 -68 11 -20 3 -47 7 -60 9 -93 11
-145 18 -162 21 -11 3 -49 7 -85 10 -36 2 -83 6 -105 9 -22 2 -108 7 -192 10
l-152 7 5 -33z"/>
<path d="M2935 2263 c6 -5 57 -20 115 -32 119 -25 122 -26 280 -77 137 -43
264 -96 342 -141 31 -18 61 -33 66 -33 6 0 12 -3 14 -7 2 -5 26 -26 53 -47
279 -219 205 -478 -190 -670 -89 -43 -345 -140 -345 -131 0 2 -16 -3 -36 -11
-20 -8 -39 -13 -42 -10 -3 3 -10 2 -16 -3 -6 -5 -78 -23 -161 -40 -188 -39
-194 -40 -230 -46 -16 -2 -48 -7 -70 -10 -22 -4 -56 -8 -76 -10 -20 -2 -63 -6
-95 -9 -110 -12 -149 -15 -254 -23 -121 -9 -642 -10 -742 -2 l-67 6 -24 -56
c-14 -31 -24 -57 -23 -58 3 -4 215 -32 296 -39 438 -37 830 -37 1268 1 37 3
78 7 92 10 14 2 48 7 75 10 71 9 118 16 135 20 8 2 38 7 65 11 28 3 53 8 56
10 4 2 27 6 50 9 24 3 71 13 104 21 33 9 69 18 80 19 11 2 27 6 35 8 8 2 29 7
45 11 216 55 497 169 610 248 54 38 139 111 157 134 13 16 26 30 30 32 5 2 8
10 8 18 0 8 4 14 8 14 15 0 42 99 42 151 0 53 -25 131 -56 169 -19 25 -109
115 -137 137 -55 44 -238 141 -337 178 -145 55 -340 114 -485 146 -22 4 -51
11 -65 14 -14 3 -38 7 -55 10 -30 4 -50 8 -140 25 -51 9 -137 21 -190 25 -83
7 -162 17 -180 22 -13 3 -16 2 -10 -4z"/>
<path d="M1647 1315 c-12 -25 -13 -35 -4 -36 6 0 21 -2 32 -4 127 -24 228 -37
370 -50 39 -4 79 -9 90 -12 13 -3 17 -2 10 5 -5 5 -28 13 -50 16 -22 3 -47 7
-55 9 -8 2 -42 9 -75 16 -33 7 -80 20 -105 28 -25 8 -49 16 -55 17 -16 4 -108
33 -126 40 -10 5 -20 -4 -32 -29z"/>
</g>
</svg>
